<svg width="283" height="32" viewBox="0 0 283 32" fill="none" xmlns="http://www.w3.org/2000/svg">
<path d="M9.752 25.608C7.64 25.608 5.85867 25.2773 4.408 24.616C2.95733 23.9333 1.85867 23.016 1.112 21.864C0.365333 20.6907 -0.00799996 19.3467 -0.00799996 17.832H5.08C5.08 18.4293 5.24 18.984 5.56 19.496C5.90133 20.008 6.41333 20.424 7.096 20.744C7.77867 21.0427 8.664 21.192 9.752 21.192C10.7333 21.192 11.5547 21.064 12.216 20.808C12.8773 20.552 13.3787 20.2 13.72 19.752C14.0613 19.2827 14.232 18.7493 14.232 18.152C14.232 17.4053 13.912 16.8187 13.272 16.392C12.632 15.944 11.5973 15.656 10.168 15.528L8.408 15.368C6.08267 15.176 4.22667 14.4507 2.84 13.192C1.45333 11.9333 0.76 10.2693 0.76 8.2C0.76 6.70667 1.112 5.416 1.816 4.328C2.54133 3.24 3.544 2.408 4.824 1.832C6.104 1.23467 7.61867 0.935999 9.368 0.935999C11.2027 0.935999 12.7707 1.256 14.072 1.896C15.3947 2.51467 16.408 3.4 17.112 4.552C17.816 5.68267 18.168 7.016 18.168 8.552H13.048C13.048 7.976 12.9093 7.45333 12.632 6.984C12.3547 6.49333 11.9387 6.09867 11.384 5.8C10.8507 5.50133 10.1787 5.352 9.368 5.352C8.6 5.352 7.94933 5.48 7.416 5.736C6.904 5.992 6.52 6.344 6.264 6.792C6.008 7.21867 5.88 7.688 5.88 8.2C5.88 8.86133 6.11467 9.43733 6.584 9.928C7.05333 10.4187 7.82133 10.7067 8.888 10.792L10.68 10.952C12.3867 11.1013 13.8907 11.4747 15.192 12.072C16.4933 12.648 17.5067 13.448 18.232 14.472C18.9787 15.4747 19.352 16.7013 19.352 18.152C19.352 19.6453 18.9573 20.9573 18.168 22.088C17.4 23.1973 16.3013 24.0613 14.872 24.68C13.4427 25.2987 11.736 25.608 9.752 25.608ZM33.2718 25V19.816H32.4078V14.184C32.4078 13.288 32.1944 12.616 31.7678 12.168C31.3411 11.72 30.6584 11.496 29.7198 11.496C29.2504 11.496 28.6318 11.5067 27.8638 11.528C27.0958 11.5493 26.3064 11.5813 25.4958 11.624C24.6851 11.6667 23.9491 11.7093 23.2878 11.752V7.432C23.7784 7.38933 24.3544 7.34667 25.0158 7.304C25.6771 7.26133 26.3598 7.22933 27.0638 7.208C27.7678 7.18667 28.4291 7.176 29.0478 7.176C30.8398 7.176 32.3438 7.432 33.5598 7.944C34.7971 8.456 35.7358 9.23467 36.3758 10.28C37.0158 11.304 37.3358 12.6267 37.3358 14.248V25H33.2718ZM27.6718 25.448C26.4131 25.448 25.3038 25.224 24.3438 24.776C23.4051 24.328 22.6691 23.688 22.1358 22.856C21.6024 22.0027 21.3358 20.9893 21.3358 19.816C21.3358 18.536 21.6664 17.4907 22.3278 16.68C22.9891 15.848 23.9171 15.24 25.1118 14.856C26.3064 14.4507 27.6824 14.248 29.2398 14.248H32.9838V17.096H29.2078C28.3118 17.096 27.6184 17.32 27.1278 17.768C26.6584 18.1947 26.4238 18.7813 26.4238 19.528C26.4238 20.232 26.6584 20.808 27.1278 21.256C27.6184 21.6827 28.3118 21.896 29.2078 21.896C29.7838 21.896 30.2958 21.8 30.7438 21.608C31.2131 21.3947 31.5971 21.0427 31.8958 20.552C32.1944 20.0613 32.3651 19.3787 32.4078 18.504L33.6238 19.784C33.5171 21 33.2184 22.024 32.7278 22.856C32.2584 23.688 31.5971 24.328 30.7438 24.776C29.9118 25.224 28.8878 25.448 27.6718 25.448ZM41.6798 25V7.464H45.7438V15.016H45.4558C45.4558 13.224 45.6798 11.7307 46.1278 10.536C46.5758 9.34133 47.2478 8.44533 48.1438 7.848C49.0398 7.22933 50.1384 6.92 51.4398 6.92H51.6638C52.9864 6.92 54.0851 7.22933 54.9598 7.848C55.8558 8.44533 56.5278 9.34133 56.9757 10.536C57.4451 11.7307 57.6798 13.224 57.6798 15.016H56.4318C56.4318 13.224 56.6558 11.7307 57.1038 10.536C57.5731 9.34133 58.2558 8.44533 59.1518 7.848C60.0478 7.22933 61.1464 6.92 62.4478 6.92H62.6718C63.9944 6.92 65.1038 7.22933 65.9998 7.848C66.9171 8.44533 67.6104 9.34133 68.0798 10.536C68.5491 11.7307 68.7838 13.224 68.7838 15.016V25H63.6638V14.728C63.6638 13.768 63.4078 12.9893 62.8958 12.392C62.4051 11.7947 61.7011 11.496 60.7838 11.496C59.8664 11.496 59.1411 11.8053 58.6078 12.424C58.0744 13.0213 57.8078 13.8213 57.8078 14.824V25H52.6558V14.728C52.6558 13.768 52.3998 12.9893 51.8878 12.392C51.3971 11.7947 50.7038 11.496 49.8078 11.496C48.8691 11.496 48.1331 11.8053 47.5998 12.424C47.0664 13.0213 46.7998 13.8213 46.7998 14.824V25H41.6798ZM79.0685 25.544C77.0418 25.544 75.4845 24.8933 74.3965 23.592C73.3085 22.2693 72.7645 20.2853 72.7645 17.64V7.464H77.8845V17.896C77.8845 18.8347 78.1512 19.5813 78.6845 20.136C79.2178 20.6907 79.9325 20.968 80.8285 20.968C81.7458 20.968 82.4925 20.68 83.0685 20.104C83.6445 19.528 83.9325 18.7493 83.9325 17.768V7.464H89.0525V25H84.9885V17.608H85.3405C85.3405 19.3787 85.1058 20.8613 84.6365 22.056C84.1885 23.2293 83.5165 24.104 82.6205 24.68C81.7245 25.256 80.6152 25.544 79.2925 25.544H79.0685ZM101.806 25.608C100.312 25.608 98.9895 25.352 97.8375 24.84C96.7068 24.328 95.7575 23.6453 94.9895 22.792C94.2428 21.9173 93.6668 20.9467 93.2615 19.88C92.8775 18.792 92.6855 17.6827 92.6855 16.552V15.912C92.6855 14.7387 92.8775 13.6187 93.2615 12.552C93.6668 11.464 94.2428 10.4933 94.9895 9.64C95.7362 8.78667 96.6642 8.11467 97.7735 7.624C98.9042 7.112 100.184 6.856 101.614 6.856C103.491 6.856 105.07 7.28267 106.35 8.136C107.651 8.968 108.643 10.0667 109.326 11.432C110.008 12.776 110.35 14.248 110.35 15.848V17.576H94.8295V14.664H107.246L105.582 16.008C105.582 14.9627 105.432 14.0667 105.134 13.32C104.835 12.5733 104.387 12.008 103.79 11.624C103.214 11.2187 102.488 11.016 101.614 11.016C100.718 11.016 99.9602 11.2187 99.3415 11.624C98.7228 12.0293 98.2535 12.6267 97.9335 13.416C97.6135 14.184 97.4535 15.1333 97.4535 16.264C97.4535 17.3093 97.6028 18.2267 97.9015 19.016C98.2002 19.784 98.6695 20.3813 99.3095 20.808C99.9495 21.2347 100.782 21.448 101.806 21.448C102.744 21.448 103.512 21.2667 104.11 20.904C104.707 20.5413 105.112 20.0933 105.326 19.56H110.03C109.774 20.7333 109.272 21.7787 108.526 22.696C107.779 23.6133 106.84 24.328 105.71 24.84C104.579 25.352 103.278 25.608 101.806 25.608ZM113.966 25V1.64H119.118V25H113.966ZM111.886 5.416V1.64H119.118V5.416H111.886ZM137.915 31.56C137.168 31.56 136.389 31.528 135.579 31.464C134.768 31.4 133.989 31.304 133.243 31.176V29.672C134.011 29.8 134.811 29.896 135.643 29.96C136.496 30.0453 137.296 30.088 138.043 30.088C139.749 30.088 141.093 29.864 142.075 29.416C143.056 28.9893 143.76 28.2747 144.187 27.272C144.613 26.2907 144.827 24.9787 144.827 23.336V19.88L145.595 17.544C145.573 19.08 145.243 20.4347 144.603 21.608C143.984 22.7813 143.12 23.7093 142.011 24.392C140.901 25.0533 139.6 25.384 138.107 25.384C136.848 25.384 135.717 25.1493 134.715 24.68C133.733 24.1893 132.901 23.5387 132.219 22.728C131.536 21.896 131.013 20.9573 130.651 19.912C130.288 18.8453 130.107 17.7573 130.107 16.648V16.328C130.107 15.24 130.288 14.184 130.651 13.16C131.013 12.1147 131.536 11.1867 132.219 10.376C132.901 9.544 133.744 8.89333 134.747 8.424C135.749 7.93333 136.891 7.688 138.171 7.688C139.728 7.688 141.072 8.04 142.203 8.744C143.333 9.448 144.197 10.3973 144.795 11.592C145.413 12.7867 145.733 14.1093 145.755 15.56L145.115 14.696V8.2H146.491V23.336C146.491 25.3413 146.213 26.9413 145.659 28.136C145.104 29.352 144.197 30.2267 142.939 30.76C141.68 31.2933 140.005 31.56 137.915 31.56ZM138.331 23.816C139.611 23.816 140.741 23.5387 141.723 22.984C142.704 22.408 143.472 21.6293 144.027 20.648C144.581 19.6453 144.859 18.5147 144.859 17.256V15.624C144.859 14.408 144.581 13.32 144.027 12.36C143.493 11.3787 142.736 10.6 141.755 10.024C140.773 9.448 139.643 9.16 138.363 9.16C136.955 9.16 135.76 9.50133 134.779 10.184C133.819 10.8667 133.083 11.7627 132.571 12.872C132.059 13.9813 131.803 15.1867 131.803 16.488C131.803 17.832 132.069 19.0693 132.603 20.2C133.136 21.3093 133.883 22.1947 134.843 22.856C135.824 23.496 136.987 23.816 138.331 23.816ZM152.89 25V8.2H154.234V15.304H153.978C153.978 12.872 154.522 11.0587 155.61 9.864C156.698 8.66933 158.458 8.072 160.89 8.072H161.466V9.608H160.57C158.586 9.608 157.092 10.12 156.09 11.144C155.087 12.1467 154.586 13.6293 154.586 15.592V25H152.89ZM175.818 25V19.976H175.498V13.8C175.498 12.456 175.146 11.4213 174.442 10.696C173.738 9.94933 172.575 9.576 170.954 9.576C170.378 9.576 169.791 9.59733 169.194 9.64C168.597 9.66133 168.031 9.69333 167.498 9.736C166.965 9.75733 166.485 9.8 166.058 9.864V8.328C166.485 8.264 166.933 8.21067 167.402 8.168C167.893 8.12533 168.383 8.09333 168.874 8.072C169.365 8.05067 169.834 8.04 170.282 8.04C171.967 8.04 173.311 8.264 174.314 8.712C175.317 9.13867 176.042 9.8 176.49 10.696C176.938 11.5707 177.162 12.6907 177.162 14.056V25H175.818ZM169.962 25.448C168.831 25.448 167.818 25.2453 166.922 24.84C166.026 24.4347 165.311 23.8373 164.778 23.048C164.266 22.2587 164.01 21.2987 164.01 20.168C164.01 19.08 164.255 18.152 164.746 17.384C165.258 16.616 165.983 16.0293 166.922 15.624C167.882 15.2187 169.034 15.016 170.378 15.016H175.658V16.392H170.218C168.767 16.392 167.647 16.744 166.858 17.448C166.09 18.1307 165.706 19.0373 165.706 20.168C165.706 21.3627 166.122 22.312 166.954 23.016C167.786 23.6987 168.874 24.04 170.218 24.04C171.05 24.04 171.861 23.88 172.65 23.56C173.439 23.24 174.101 22.7067 174.634 21.96C175.167 21.192 175.455 20.168 175.498 18.888L176.138 19.624C176.074 20.9253 175.754 22.0133 175.178 22.888C174.623 23.7413 173.898 24.3813 173.002 24.808C172.106 25.2347 171.093 25.448 169.962 25.448ZM183.515 25V8.2H184.859V15.08H184.475C184.475 13.608 184.709 12.328 185.179 11.24C185.669 10.1307 186.384 9.27733 187.323 8.68C188.283 8.06133 189.467 7.752 190.875 7.752H190.971C193.083 7.752 194.672 8.41333 195.739 9.736C196.805 11.0373 197.339 12.8187 197.339 15.08V25H195.611V14.696C195.611 13.096 195.173 11.8053 194.299 10.824C193.445 9.82133 192.208 9.32 190.587 9.32C188.944 9.32 187.632 9.832 186.651 10.856C185.691 11.8587 185.211 13.192 185.211 14.856V25H183.515ZM213.974 25V19.976H213.654V13.8C213.654 12.456 213.302 11.4213 212.598 10.696C211.894 9.94933 210.732 9.576 209.11 9.576C208.534 9.576 207.948 9.59733 207.35 9.64C206.753 9.66133 206.188 9.69333 205.654 9.736C205.121 9.75733 204.641 9.8 204.214 9.864V8.328C204.641 8.264 205.089 8.21067 205.558 8.168C206.049 8.12533 206.54 8.09333 207.03 8.072C207.521 8.05067 207.99 8.04 208.438 8.04C210.124 8.04 211.468 8.264 212.47 8.712C213.473 9.13867 214.198 9.8 214.646 10.696C215.094 11.5707 215.318 12.6907 215.318 14.056V25H213.974ZM208.118 25.448C206.988 25.448 205.974 25.2453 205.078 24.84C204.182 24.4347 203.468 23.8373 202.934 23.048C202.422 22.2587 202.166 21.2987 202.166 20.168C202.166 19.08 202.412 18.152 202.902 17.384C203.414 16.616 204.14 16.0293 205.078 15.624C206.038 15.2187 207.19 15.016 208.534 15.016H213.814V16.392H208.374C206.924 16.392 205.804 16.744 205.014 17.448C204.246 18.1307 203.862 19.0373 203.862 20.168C203.862 21.3627 204.278 22.312 205.11 23.016C205.942 23.6987 207.03 24.04 208.374 24.04C209.206 24.04 210.017 23.88 210.806 23.56C211.596 23.24 212.257 22.7067 212.79 21.96C213.324 21.192 213.612 20.168 213.654 18.888L214.294 19.624C214.23 20.9253 213.91 22.0133 213.334 22.888C212.78 23.7413 212.054 24.3813 211.158 24.808C210.262 25.2347 209.249 25.448 208.118 25.448ZM228.423 25.544C227.164 25.544 226.023 25.3093 224.999 24.84C223.996 24.3493 223.143 23.6987 222.439 22.888C221.735 22.056 221.191 21.1173 220.807 20.072C220.444 19.0267 220.263 17.928 220.263 16.776V16.456C220.263 15.3467 220.444 14.28 220.807 13.256C221.17 12.2107 221.692 11.272 222.375 10.44C223.079 9.58667 223.932 8.91467 224.935 8.424C225.938 7.93333 227.09 7.688 228.391 7.688C229.906 7.688 231.218 8.02933 232.327 8.712C233.458 9.39467 234.332 10.3333 234.951 11.528C235.591 12.7013 235.932 14.0453 235.975 15.56L235.111 13.672V1.64H236.807V25H235.463V17.544H236.103C236.06 19.144 235.708 20.552 235.047 21.768C234.386 22.9627 233.479 23.8907 232.327 24.552C231.196 25.2133 229.895 25.544 228.423 25.544ZM228.583 24.008C229.884 24.008 231.026 23.72 232.007 23.144C233.01 22.568 233.788 21.7893 234.343 20.808C234.919 19.8053 235.207 18.664 235.207 17.384V15.72C235.207 14.504 234.919 13.4053 234.343 12.424C233.788 11.4427 233.01 10.664 232.007 10.088C231.026 9.512 229.884 9.224 228.583 9.224C227.175 9.224 225.98 9.56533 224.999 10.248C224.018 10.9307 223.26 11.8373 222.727 12.968C222.215 14.0773 221.959 15.2933 221.959 16.616C221.959 17.9813 222.226 19.2293 222.759 20.36C223.292 21.4693 224.05 22.3547 225.031 23.016C226.034 23.6773 227.218 24.008 228.583 24.008ZM250.686 25.544C249.278 25.544 248.03 25.288 246.942 24.776C245.854 24.264 244.936 23.592 244.19 22.76C243.464 21.928 242.91 21 242.526 19.976C242.163 18.9307 241.982 17.864 241.982 16.776V16.456C241.982 15.3467 242.174 14.2693 242.558 13.224C242.942 12.1787 243.507 11.24 244.254 10.408C245 9.576 245.907 8.91467 246.974 8.424C248.062 7.93333 249.299 7.688 250.686 7.688C252.051 7.688 253.267 7.93333 254.334 8.424C255.422 8.91467 256.339 9.576 257.086 10.408C257.832 11.24 258.398 12.1787 258.782 13.224C259.187 14.2693 259.39 15.3467 259.39 16.456V16.776C259.39 17.864 259.198 18.9307 258.814 19.976C258.43 21 257.864 21.928 257.118 22.76C256.392 23.592 255.486 24.264 254.398 24.776C253.331 25.288 252.094 25.544 250.686 25.544ZM250.686 23.976C252.179 23.976 253.438 23.6347 254.462 22.952C255.507 22.2693 256.296 21.3733 256.83 20.264C257.384 19.1333 257.662 17.9173 257.662 16.616C257.662 15.272 257.384 14.0453 256.83 12.936C256.275 11.8053 255.475 10.9093 254.43 10.248C253.406 9.56533 252.158 9.224 250.686 9.224C249.235 9.224 247.976 9.56533 246.91 10.248C245.864 10.9093 245.064 11.8053 244.51 12.936C243.955 14.0453 243.678 15.272 243.678 16.616C243.678 17.9173 243.944 19.1333 244.478 20.264C245.032 21.3733 245.832 22.2693 246.878 22.952C247.923 23.6347 249.192 23.976 250.686 23.976ZM269.57 25.48C267.479 25.48 265.869 25 264.738 24.04C263.629 23.08 263.063 21.8533 263.042 20.36H264.706C264.706 21.32 265.079 22.1627 265.826 22.888C266.594 23.592 267.842 23.944 269.57 23.944C271.255 23.944 272.493 23.592 273.282 22.888C274.071 22.1627 274.466 21.3093 274.466 20.328C274.466 19.368 274.103 18.632 273.378 18.12C272.674 17.608 271.714 17.288 270.498 17.16L268.514 16.936C267.042 16.7653 265.869 16.3067 264.994 15.56C264.141 14.8133 263.714 13.8 263.714 12.52C263.714 11.6027 263.949 10.7813 264.418 10.056C264.887 9.33067 265.559 8.75467 266.434 8.328C267.33 7.90133 268.375 7.688 269.57 7.688C271.319 7.688 272.727 8.11467 273.794 8.968C274.882 9.82133 275.437 10.984 275.458 12.456H273.794C273.815 11.5387 273.453 10.7707 272.706 10.152C271.981 9.53333 270.935 9.224 269.57 9.224C268.141 9.224 267.074 9.55467 266.37 10.216C265.687 10.8773 265.346 11.656 265.346 12.552C265.346 13.2987 265.613 13.9387 266.146 14.472C266.701 15.0053 267.533 15.336 268.642 15.464L270.626 15.688C272.205 15.8373 273.506 16.296 274.53 17.064C275.575 17.832 276.098 18.9307 276.098 20.36C276.098 21.32 275.831 22.184 275.298 22.952C274.786 23.72 274.05 24.3387 273.09 24.808C272.13 25.256 270.957 25.48 269.57 25.48Z" fill="white"/>
<path d="M280.632 25V22.536H282.872V25H280.632Z" fill="#F13024"/>
</svg>
